<?xml version="1.0" encoding="utf-8"?>
<!-- Generator: Adobe Illustrator 27.3.1, SVG Export Plug-In . SVG Version: 6.00 Build 0)  -->
<svg version="1.1" id="Layer_1" xmlns="http://www.w3.org/2000/svg" xmlns:xlink="http://www.w3.org/1999/xlink" x="0px" y="0px"
	 viewBox="0 0 2560 3840" style="enable-background:new 0 0 2560 3840;" xml:space="preserve">
<style type="text/css">
	.st0{fill:#006699;stroke:#000000;stroke-miterlimit:10;}
	.st1{fill:#FFFFFF;stroke:#000000;stroke-miterlimit:10;}
	.st2{fill:#003333;stroke:#000000;stroke-miterlimit:10;}
</style>
<rect class="st0" width="2560" height="3840"/>
<circle class="st1" cx="1280" cy="1920" r="844.8"/>
<path class="st2" d="M1837.6,1920.7c-0.4,51.2-42.9,92.2-94.1,92.2h-324.5c-25.4,0-46,20.6-46,46v324.5c0,51.2-41,93.7-92.2,94.1
	c-51.6,0.4-93.6-41.4-93.6-92.9v-325.7c0-25.4-20.6-46-46-46H816.5c-51.1,0-93.5-40.8-94.1-91.9c-0.3-26.1,10.2-49.7,27.2-66.8
	c16.8-16.8,40-27.2,65.7-27.2h325.7c25.4,0,46-20.6,46-46v-324.5c0-51.1,40.8-93.5,91.9-94.1c26.1-0.3,49.7,10.2,66.8,27.2
	c16.8,16.8,27.2,40.1,27.2,65.7v325.7c0,25.4,20.6,46,46,46h325.7C1796.2,1827.1,1838,1869.1,1837.6,1920.7z"/>
</svg>
