<?xml version="1.0" encoding="UTF-8"?>
<svg id="Layer_2" data-name="Layer 2" xmlns="http://www.w3.org/2000/svg" viewBox="0 0 1691 406">
  <defs>
    <style>
      .cls-1 {
        fill: #fff;
      }

      .cls-2 {
        fill: blue;
      }

      .cls-3 {
        fill: lime;
      }

      .cls-4 {
        fill: #666;
      }

      .cls-5 {
        fill: red;
      }

      .cls-6 {
        fill: #ff0;
      }
    </style>
  </defs>
  <g id="Layer_1-2" data-name="Layer 1">
    <g>
      <path class="cls-4" d="m115.5,179.5c-.55,0-1.1,0-1.64-.02-.44-.01-.82-.02-1.18-.04l-.36-.02c-.26-.01-.53-.02-.79-.05,0,0-.29-.01-.38-.02l-.35-.03c-.24-.02-.49-.04-.73-.06-.05,0-.12,0-.2-.02-.41-.03-.84-.07-1.25-.12-.88-.09-1.78-.21-2.68-.35-.3-.04-.62-.1-.94-.15l-.38-.06c-.59-.1-1.07-.54-1.21-1.12l-9.97-39.89-39.89-9.97c-.58-.15-1.02-.62-1.12-1.21l-.06-.38c-.05-.32-.11-.64-.15-.96-.13-.88-.25-1.78-.35-2.68-.05-.39-.09-.81-.12-1.23-.01-.08-.02-.15-.02-.2-.02-.24-.04-.49-.06-.73l-.05-.73c-.02-.26-.03-.53-.05-.79l-.02-.36c-.02-.37-.03-.74-.04-1.12-.01-.6-.02-1.15-.02-1.7s0-1.1.02-1.64c.01-.45.02-.83.04-1.22l.06-1.07c0-.08,0-.25.02-.42l.03-.35c.02-.24.04-.49.06-.73,0-.06,0-.13.02-.21.03-.42.07-.84.12-1.25.09-.88.21-1.78.35-2.68.04-.3.1-.62.15-.94l.06-.38c.1-.59.54-1.07,1.12-1.21l39.89-9.97,9.97-39.89c.15-.58.62-1.02,1.21-1.12l.38-.06c.32-.05.64-.11.96-.15.88-.13,1.78-.25,2.68-.35.39-.05.81-.09,1.23-.12.08-.01.15-.02.2-.02.24-.02.49-.04.73-.06l.73-.05c.26-.02.53-.03.79-.05l.36-.02c.38-.02.78-.03,1.17-.04.55-.01,1.1-.02,1.65-.02s1.1,0,1.64.02c.4.01.8.02,1.18.04l.36.02c.26.01.53.02.79.05,0,0,.29.01.38.02l.35.03c.24.02.49.04.73.06.05,0,.12,0,.2.02.41.03.84.07,1.25.12.88.09,1.78.21,2.68.35.3.04.62.1.94.15l.38.06c.59.1,1.07.54,1.21,1.12l9.97,39.89,39.89,9.97c.58.15,1.02.62,1.12,1.21l.06.38c.05.32.11.64.15.96.13.88.25,1.78.35,2.68.05.39.09.8.12,1.23.01.08.02.15.02.21.02.24.04.49.06.73l.03.35c.01.17.02.34.02.51l.06.97c.02.39.03.78.04,1.16.01.6.02,1.15.02,1.7s0,1.1-.02,1.64c-.01.44-.02.82-.04,1.18l-.02.36c-.01.26-.02.53-.05.79,0,0-.01.29-.02.38l-.03.35c-.02.24-.04.49-.06.73,0,.05,0,.12-.02.2-.03.41-.07.84-.12,1.25-.09.88-.21,1.78-.35,2.68-.04.3-.1.62-.15.94l-.06.38c-.1.59-.54,1.07-1.12,1.21l-39.89,9.97-9.97,39.89c-.15.58-.62,1.02-1.21,1.12l-.38.06c-.32.05-.64.11-.96.15-.88.13-1.78.25-2.68.35-.39.05-.81.09-1.23.12-.08.01-.15.02-.2.02-.24.02-.49.04-.73.06l-.73.05c-.26.02-.53.03-.79.05l-.36.02c-.37.02-.74.03-1.12.04-.6.01-1.15.02-1.7.02Z"/>
      <path d="m115.5,53c.54,0,1.08.01,1.61.02.38.01.76.02,1.13.04.37.02.74.03,1.11.06.12.01.25.01.38.02.37.03.74.05,1.11.09.03,0,.07,0,.1.01.42.03.85.07,1.27.12.88.09,1.76.21,2.63.34.43.06.87.14,1.3.21l10.19,40.76,40.76,10.19c.07.43.15.87.21,1.3.13.87.25,1.75.34,2.63.05.42.09.84.12,1.27.01.03.01.06.01.1.04.37.06.74.09,1.11.01.13.02.26.02.39.02.35.04.71.06,1.06.02.39.03.78.04,1.17.01.53.02,1.07.02,1.61s0,1.08-.02,1.61c-.01.38-.02.76-.04,1.13s-.03.74-.06,1.11c-.01.12-.01.25-.02.38-.03.37-.05.74-.09,1.11,0,.03,0,.07-.01.1-.03.42-.07.85-.12,1.27-.09.88-.21,1.76-.34,2.63-.06.43-.14.87-.21,1.3l-40.76,10.19-10.19,40.76c-.43.07-.87.15-1.3.21-.87.13-1.75.25-2.63.34-.42.05-.85.09-1.27.12-.03,0-.07,0-.1,0-.37.04-.74.06-1.11.09-.13.01-.26.01-.38.02-.37.03-.74.04-1.11.06-.37.02-.75.03-1.13.04-.53.01-1.07.02-1.61.02s-1.08-.01-1.61-.02c-.38-.01-.76-.02-1.13-.04-.37-.02-.74-.03-1.11-.06-.12-.01-.25-.01-.38-.02-.37-.03-.74-.05-1.11-.09-.03,0-.07,0-.1,0-.42-.03-.85-.07-1.27-.12-.88-.09-1.76-.21-2.63-.34-.43-.06-.87-.14-1.3-.21l-10.19-40.76-40.76-10.19c-.07-.43-.15-.87-.21-1.3-.13-.87-.25-1.75-.34-2.63-.05-.42-.09-.85-.12-1.27-.01-.03-.01-.07-.01-.1-.04-.37-.06-.74-.09-1.11-.01-.13-.01-.26-.02-.38-.03-.37-.04-.74-.06-1.11-.02-.37-.03-.75-.04-1.13-.01-.53-.02-1.07-.02-1.61s0-1.08.02-1.61c0-.39.02-.78.04-1.17.02-.35.04-.71.06-1.06,0-.13.01-.26.02-.39.03-.37.05-.74.09-1.11,0-.04,0-.07.01-.1.03-.43.07-.85.12-1.27.09-.88.21-1.76.34-2.63.06-.43.14-.87.21-1.3l40.76-10.19,10.19-40.76c.43-.07.87-.15,1.3-.21.87-.13,1.75-.25,2.63-.34.42-.05.85-.09,1.27-.12.03-.01.07-.01.1-.01.37-.04.74-.06,1.11-.09.13-.01.26-.01.38-.02.37-.03.74-.04,1.11-.06.37-.02.75-.03,1.13-.04.53,0,1.07-.02,1.61-.02m0-3c-.56,0-1.12.01-1.67.02-.43.01-.84.02-1.24.04l-.34.02c-.28.01-.57.03-.85.05h-.06c-.1,0-.2.01-.3.02l-.35.03c-.24.02-.48.04-.73.06-.07,0-.16.01-.25.02-.43.03-.86.07-1.27.12-.77.08-1.65.19-2.72.35-.3.04-.63.1-.95.15l-.39.06c-1.18.19-2.14,1.07-2.43,2.23l-9.75,39.01-39.01,9.75c-1.16.29-2.04,1.25-2.23,2.43l-.06.39c-.06.33-.11.65-.16.98-.16,1.04-.27,1.92-.35,2.74-.05.38-.09.79-.12,1.22-.01.09-.02.18-.02.26-.02.24-.04.49-.06.73l-.03.34c-.01.18-.03.36-.03.53l-.03.46-.03.53c-.02.43-.03.85-.04,1.26-.01.57-.02,1.13-.02,1.69s.01,1.12.02,1.67c.01.43.02.84.04,1.24l.02.34c.01.28.03.56.05.85v.07c0,.1.01.2.02.3l.03.35c.02.24.04.48.06.73,0,.07.01.16.02.25.03.43.07.86.12,1.27.08.77.19,1.65.35,2.72.04.29.1.62.15.95l.06.39c.19,1.18,1.07,2.14,2.23,2.43l39.01,9.75,9.75,39.01c.29,1.16,1.25,2.04,2.43,2.23l.39.06c.33.06.66.11.98.16,1.04.16,1.92.27,2.74.35.38.05.8.09,1.22.12.09.01.18.02.25.02.24.02.48.04.72.06l.34.03c.11,0,.22.01.32.02h.07c.28.03.56.04.84.05l.34.02c.4.02.81.03,1.21.04.57.01,1.13.02,1.69.02s1.12-.01,1.67-.02c.43-.01.84-.02,1.23-.04l.34-.02c.28-.01.56-.03.85-.05h.07c.1,0,.2-.01.3-.02l.36-.03c.24-.02.48-.04.72-.06.07,0,.16-.01.25-.02.42-.03.85-.07,1.27-.12.77-.08,1.65-.19,2.72-.35.3-.04.62-.1.95-.15l.39-.06c1.18-.19,2.14-1.07,2.43-2.23l9.75-39.01,39.01-9.75c1.16-.29,2.04-1.25,2.23-2.43l.06-.39c.06-.33.11-.65.16-.98.16-1.04.27-1.92.35-2.74.04-.37.08-.79.12-1.22.01-.1.02-.18.02-.25.02-.24.04-.48.06-.73l.03-.34c0-.11.01-.21.02-.31v-.07c.03-.28.04-.56.05-.84l.02-.34c.02-.4.03-.8.04-1.21.01-.58.02-1.13.02-1.69s-.01-1.12-.02-1.67c-.01-.44-.02-.85-.04-1.27l-.03-.55-.03-.46c0-.17-.01-.34-.03-.52l-.03-.35c-.02-.24-.04-.49-.06-.73,0-.08-.01-.16-.02-.26-.03-.42-.07-.84-.12-1.27-.08-.77-.19-1.65-.35-2.72-.04-.29-.1-.62-.15-.95l-.06-.39c-.19-1.18-1.07-2.14-2.23-2.43l-39.01-9.75-9.75-39.01c-.29-1.16-1.25-2.04-2.43-2.23l-.39-.06c-.33-.06-.66-.11-.98-.16-1.04-.16-1.92-.27-2.74-.35-.37-.04-.79-.09-1.22-.12-.1-.01-.18-.02-.25-.02-.24-.02-.48-.04-.73-.06l-.34-.03c-.11,0-.21-.01-.31-.02h-.07c-.28-.03-.56-.04-.84-.05l-.34-.02c-.4-.02-.8-.03-1.21-.04-.57-.01-1.13-.02-1.69-.02h0Z"/>
    </g>
    <g>
      <path class="cls-1" d="m3,404.5c-.83,0-1.5-.67-1.5-1.5V115.5C1.5,77.38,20.44,41.94,52.17,20.7,70.93,8.14,92.83,1.5,115.5,1.5c62.86,0,114,51.14,114,114s-51.14,114-114,114c-21.73,0-42.76-6.11-61-17.68v191.18c0,.83-.67,1.5-1.5,1.5H3Zm107.32-228.22c.23.02.46.04.69.06,0,0,.68.04.76.05.34.03.69.05,1.03.06.38.02.73.03,1.08.04.56.01,1.09.02,1.62.02s1.06,0,1.58-.02c.39-.01.74-.02,1.08-.04.38-.01.73-.03,1.07-.06.08,0,.38-.02.38-.02l.37-.03c.23-.02.46-.03.69-.06.02,0,.12-.01.16-.02.41-.03.8-.07,1.2-.11.88-.09,1.74-.21,2.58-.33.44-.06.84-.13,1.25-.2,25.42-4.35,45.4-24.33,49.75-49.73.08-.43.15-.83.2-1.25.13-.87.25-1.73.33-2.58.05-.42.09-.81.12-1.22,0-.03.01-.14.02-.16.02-.23.04-.46.06-.69,0,0,.04-.68.05-.76.03-.34.05-.69.06-1.03.02-.38.03-.73.04-1.08.01-.56.02-1.09.02-1.62s0-1.05-.02-1.58c-.01-.4-.02-.76-.04-1.12l-.02-.36c-.01-.21-.02-.43-.04-.64,0-.04,0-.09,0-.13,0-.09,0-.18-.02-.27l-.03-.37c-.02-.23-.03-.46-.06-.69,0-.02-.01-.12-.02-.16-.03-.41-.07-.8-.11-1.2-.09-.88-.21-1.74-.33-2.58-.06-.44-.13-.84-.2-1.25-4.35-25.42-24.33-45.4-49.73-49.75-.43-.08-.83-.15-1.25-.2-.87-.13-1.73-.25-2.58-.33-.42-.05-.81-.09-1.22-.12-.03,0-.14-.01-.16-.02-.23-.02-.46-.04-.69-.06,0,0-.68-.04-.76-.05-.34-.03-.69-.05-1.03-.06-.4-.02-.76-.03-1.13-.04-.51,0-1.04-.02-1.57-.02s-1.06,0-1.58.02c-.36,0-.72.02-1.08.04-.38.01-.73.03-1.07.06-.08,0-.38.02-.38.02l-.37.03c-.23.02-.46.03-.69.06-.02,0-.12.01-.16.02-.41.03-.8.07-1.2.11-.88.09-1.74.21-2.58.33-.44.06-.84.13-1.25.2-25.42,4.35-45.4,24.33-49.75,49.73-.08.43-.15.83-.2,1.25-.13.87-.25,1.73-.33,2.58-.05.42-.09.81-.12,1.22,0,.03-.01.14-.02.16-.02.23-.04.46-.06.69l-.03.38c0,.09-.02.18-.02.27,0,.04,0,.09,0,.13-.02.21-.03.43-.04.64l-.02.37c-.02.35-.03.71-.04,1.07-.01.57-.02,1.09-.02,1.62s0,1.06.02,1.58c.01.39.02.74.04,1.08.01.38.03.73.06,1.07,0,.08.02.38.02.38l.03.37c.02.23.03.46.06.69,0,.02.01.12.02.16.03.41.07.8.11,1.2.09.88.21,1.74.33,2.58.06.44.13.84.2,1.25,4.35,25.42,24.33,45.4,49.73,49.75.43.08.83.15,1.25.2.87.13,1.73.25,2.58.33.42.05.81.09,1.22.12.03,0,.07,0,.1.01.02,0,.04,0,.06,0Z"/>
      <path d="m115.5,3c62.13,0,112.5,50.37,112.5,112.5s-50.37,112.5-112.5,112.5c-23.12,0-44.62-6.98-62.5-18.95v193.95H3V115.5c0-39,19.85-73.37,50-93.55C70.88,9.98,92.38,3,115.5,3m0,175c.54,0,1.08-.01,1.61-.02.38-.01.76-.02,1.13-.04.37-.01.74-.03,1.11-.06.12-.01.25-.01.38-.02.37-.03.74-.05,1.11-.09.03,0,.07,0,.1,0,.43-.03.85-.07,1.27-.12.88-.09,1.76-.21,2.63-.34.44-.06.87-.13,1.3-.21,25.99-4.45,46.5-24.96,50.95-50.95.08-.43.15-.86.21-1.3.13-.87.25-1.75.34-2.63.05-.42.09-.84.12-1.27.01-.03.01-.07.01-.1.04-.37.06-.74.09-1.11,0-.13,0-.26.02-.38.03-.37.05-.74.06-1.11.02-.37.03-.75.04-1.13.01-.53.02-1.07.02-1.61s0-1.07-.02-1.61c-.01-.39-.02-.78-.04-1.17-.02-.35-.03-.71-.06-1.06,0-.13-.01-.26-.02-.39-.03-.37-.05-.74-.09-1.11,0-.04,0-.07-.01-.1-.03-.43-.07-.85-.12-1.27-.09-.88-.21-1.76-.34-2.63-.06-.44-.13-.87-.21-1.3-4.45-25.99-24.96-46.5-50.95-50.95-.43-.08-.86-.15-1.3-.21-.87-.13-1.75-.25-2.63-.34-.42-.05-.84-.09-1.27-.12-.03,0-.07,0-.1,0-.37-.04-.74-.06-1.11-.09-.13-.01-.26-.01-.38-.02-.37-.03-.74-.05-1.11-.06-.37-.02-.75-.03-1.13-.04-.53,0-1.07-.02-1.61-.02s-1.08.01-1.61.02c-.38,0-.76.02-1.13.04-.37.01-.74.03-1.11.06-.12.01-.25.01-.38.02-.37.03-.74.05-1.11.09-.03,0-.07,0-.1,0-.43.03-.85.07-1.27.12-.88.09-1.76.21-2.63.34-.44.06-.87.13-1.3.21-25.99,4.45-46.5,24.96-50.95,50.95-.08.43-.15.86-.21,1.3-.13.87-.25,1.75-.34,2.63-.05.42-.09.84-.12,1.27-.01.03-.01.06-.01.1-.04.37-.06.74-.09,1.11,0,.13-.02.26-.02.39-.03.35-.04.71-.06,1.06-.02.39-.03.78-.04,1.17-.01.54-.02,1.07-.02,1.61s0,1.08.02,1.61c.01.38.02.76.04,1.13,0,.37.03.74.06,1.11.01.12.01.25.02.38.03.37.05.74.09,1.11,0,.03,0,.07.01.1.03.43.07.85.12,1.27.09.88.21,1.76.34,2.63.06.44.13.87.21,1.3,4.45,25.99,24.96,46.5,50.95,50.95.43.08.86.15,1.3.21.87.13,1.75.25,2.63.34.42.05.84.09,1.27.12.03,0,.07,0,.1,0,.37.04.74.06,1.11.09.13.01.26.01.38.02.37.03.74.05,1.11.06.37.02.75.03,1.13.04.53.01,1.07.02,1.61.02M115.5,0c-22.97,0-45.16,6.73-64.17,19.46C19.19,40.97,0,76.87,0,115.5v287.5c0,1.66,1.34,3,3,3h50c1.66,0,3-1.34,3-3v-188.49c17.93,10.8,38.39,16.49,59.5,16.49,30.85,0,59.85-12.01,81.67-33.83s33.83-50.82,33.83-81.67-12.01-59.85-33.83-81.67C175.35,12.01,146.35,0,115.5,0h0Zm-5.09,56.22s.05,0,.07,0c.21-.02.42-.04.63-.05l.4-.03h.07c.11,0,.22-.01.32-.02.31-.03.63-.04.94-.05.03,0,.05,0,.08,0,.34-.02.69-.03,1.05-.04.49,0,1.01-.02,1.53-.02s1.04,0,1.55.02c.33,0,.68.02,1.02.04.03,0,.05,0,.08,0,.32,0,.63.03.95.05.1,0,.21.01.32.02h.08s.38.03.38.03c.21.02.42.03.63.05.02,0,.05,0,.07,0,.05,0,.09,0,.14.01.38.03.75.06,1.12.11.77.08,1.56.18,2.54.33.43.06.81.12,1.19.19,24.81,4.25,44.3,23.74,48.54,48.51.08.43.14.81.19,1.2.15,1.02.25,1.81.33,2.53.05.42.09.79.11,1.17,0,.05,0,.09.01.14,0,.02,0,.05,0,.07.02.21.04.42.05.63l.03.4s0,.1.01.15c0,.09,0,.17.01.25.02.19.03.39.03.59l.02.39c.02.34.03.7.04,1.06,0,.53.02,1.03.02,1.55s0,1.04-.02,1.55c0,.34-.02.69-.04,1.02,0,.03,0,.05,0,.08,0,.32-.03.63-.05.95,0,.1-.01.2-.02.31v.08s-.03.38-.03.38c-.02.21-.03.42-.05.63,0,.02,0,.05,0,.07,0,.05,0,.09-.01.14-.03.38-.06.75-.11,1.12-.08.77-.18,1.56-.33,2.54-.06.43-.12.81-.19,1.19-4.25,24.81-23.74,44.3-48.51,48.54-.43.08-.81.14-1.2.19-1.02.15-1.81.25-2.53.33-.42.05-.79.09-1.17.11-.05,0-.09,0-.14.01-.03,0-.05,0-.07,0-.21.02-.42.04-.63.05l-.4.03h-.06c-.11,0-.22.01-.32.02-.31.03-.63.04-.94.05-.03,0-.05,0-.08,0-.34.02-.69.03-1.04.04-.49,0-1.02.02-1.54.02s-1.04,0-1.55-.02c-.33,0-.68-.02-1.03-.04-.03,0-.05,0-.08,0-.32,0-.63-.03-.95-.05-.1,0-.2-.01-.31-.02h-.08s-.38-.03-.38-.03c-.21-.02-.42-.03-.63-.05-.03,0-.05,0-.08,0-.05,0-.09,0-.14-.01-.38-.03-.75-.06-1.12-.11-.77-.08-1.56-.18-2.54-.33-.43-.06-.81-.12-1.19-.19-24.81-4.25-44.3-23.74-48.54-48.51-.08-.43-.14-.81-.19-1.2-.15-1.02-.25-1.81-.33-2.53-.05-.42-.09-.79-.11-1.17,0-.05,0-.09-.01-.14,0-.02,0-.05,0-.07-.02-.21-.04-.42-.05-.63l-.03-.4v-.07c0-.11-.01-.22-.02-.32-.03-.31-.04-.63-.05-.94,0-.03,0-.05,0-.08-.02-.34-.03-.69-.04-1.04,0-.5-.02-1.02-.02-1.54s0-1.01.02-1.53c0-.38.02-.74.04-1.1l.02-.37c0-.2.02-.39.03-.59,0-.09.01-.17.01-.26,0-.05,0-.1.01-.16l.03-.38c.02-.21.03-.42.05-.63,0-.02,0-.05,0-.07,0-.05,0-.09.01-.14.03-.38.06-.75.11-1.12.08-.77.18-1.56.33-2.54.06-.43.12-.81.19-1.19,4.25-24.81,23.74-44.3,48.51-48.54.43-.08.81-.14,1.2-.19,1.02-.15,1.81-.25,2.53-.33.42-.05.79-.09,1.17-.11.05,0,.09,0,.14-.01h0Z"/>
    </g>
    <g>
      <rect class="cls-1" x="441.5" y="1.5" width="53" height="403" rx="1.5" ry="1.5"/>
      <path d="m493,3v400h-50V3h50m0-3h-50c-1.66,0-3,1.34-3,3v400c0,1.66,1.34,3,3,3h50c1.66,0,3-1.34,3-3V3c0-1.66-1.34-3-3-3h0Z"/>
    </g>
    <g>
      <rect class="cls-1" x="511.5" y="1.5" width="53" height="403" rx="1.5" ry="1.5"/>
      <path d="m563,3v400h-50V3h50m0-3h-50c-1.66,0-3,1.34-3,3v400c0,1.66,1.34,3,3,3h50c1.66,0,3-1.34,3-3V3c0-1.66-1.34-3-3-3h0Z"/>
    </g>
    <g>
      <path class="cls-1" d="m953,404.5c-.83,0-1.5-.67-1.5-1.5v-10.82c-14.81,8.07-31.52,12.32-48.5,12.32-55.97,0-101.5-45.53-101.5-101.5s45.53-101.5,101.5-101.5c16.98,0,33.69,4.25,48.5,12.32V3c0-.83.67-1.5,1.5-1.5h50c.83,0,1.5.67,1.5,1.5v400c0,.83-.67,1.5-1.5,1.5h-50Z"/>
      <path d="m1003,3v400h-50v-13.38c-14.71,8.51-31.78,13.38-50,13.38-55.23,0-100-44.77-100-100s44.77-100,100-100c18.22,0,35.29,4.87,50,13.38V3h50m0-3h-50c-1.66,0-3,1.34-3,3v208.33c-14.47-7.42-30.61-11.33-47-11.33-56.79,0-103,46.21-103,103s46.21,103,103,103c16.39,0,32.53-3.9,47-11.33v8.33c0,1.66,1.34,3,3,3h50c1.66,0,3-1.34,3-3V3c0-1.66-1.34-3-3-3h0Z"/>
    </g>
    <g>
      <rect class="cls-1" x="1034" y="201.5" width="53" height="203" rx="1.5" ry="1.5"/>
      <path d="m1085.5,203v200h-50v-200h50m0-3h-50c-1.66,0-3,1.34-3,3v200c0,1.66,1.34,3,3,3h50c1.66,0,3-1.34,3-3v-200c0-1.66-1.34-3-3-3h0Z"/>
    </g>
    <g>
      <circle class="cls-1" cx="1060.5" cy="103" r="39"/>
      <path d="m1060.5,65.5c20.71,0,37.5,16.79,37.5,37.5s-16.79,37.5-37.5,37.5-37.5-16.79-37.5-37.5,16.79-37.5,37.5-37.5m0-3c-22.33,0-40.5,18.17-40.5,40.5s18.17,40.5,40.5,40.5,40.5-18.17,40.5-40.5-18.17-40.5-40.5-40.5h0Z"/>
    </g>
    <g>
      <path class="cls-1" d="m1218,404.5c-17.84,0-35.39-4.7-50.75-13.58-31.3-18.11-50.75-51.8-50.75-87.92v-100c0-.83.67-1.5,1.5-1.5h50c.83,0,1.5.67,1.5,1.5v100c0,26.74,21.76,48.5,48.5,48.5s48.5-21.76,48.5-48.5v-100c0-.83.67-1.5,1.5-1.5h50c.83,0,1.5.67,1.5,1.5v100c0,36.12-19.45,69.81-50.75,87.92-15.36,8.88-32.91,13.58-50.75,13.58Z"/>
      <path d="m1318,203v100c0,37.02-20.11,69.33-50,86.62-14.71,8.51-31.78,13.38-50,13.38s-35.29-4.87-50-13.38c-29.89-17.29-50-49.6-50-86.62v-100h50v100c0,27.61,22.39,50,50,50s50-22.39,50-50v-100h50m0-3h-50c-1.66,0-3,1.34-3,3v100c0,25.92-21.08,47-47,47s-47-21.08-47-47v-100c0-1.66-1.34-3-3-3h-50c-1.66,0-3,1.34-3,3v100c0,18.4,4.91,36.47,14.21,52.23,9.02,15.3,21.92,28.09,37.29,36.98,15.59,9.02,33.4,13.78,51.5,13.78s35.92-4.77,51.5-13.78c15.38-8.89,28.27-21.68,37.29-36.98,9.29-15.77,14.21-33.83,14.21-52.23v-100c0-1.66-1.34-3-3-3h0Z"/>
    </g>
    <g>
      <path class="cls-1" d="m1638,404.5c-.83,0-1.5-.67-1.5-1.5v-100c0-26.74-21.76-48.5-48.5-48.5s-48.5,21.76-48.5,48.5v100c0,.83-.67,1.5-1.5,1.5h-50c-.83,0-1.5-.67-1.5-1.5v-100c0-26.74-21.76-48.5-48.5-48.5s-48.5,21.76-48.5,48.5v100c0,.83-.67,1.5-1.5,1.5h-50c-.83,0-1.5-.67-1.5-1.5v-100c0-36.12,19.45-69.81,50.75-87.92,15.36-8.88,32.91-13.58,50.75-13.58s35.39,4.7,50.75,13.58c9.05,5.23,17.2,11.79,24.25,19.52,7.05-7.73,15.2-14.29,24.25-19.52,15.36-8.88,32.91-13.58,50.75-13.58s35.39,4.7,50.75,13.58c31.3,18.11,50.75,51.8,50.75,87.92v100c0,.83-.67,1.5-1.5,1.5h-50Z"/>
      <path d="m1588,203c18.22,0,35.29,4.87,50,13.38,29.89,17.29,50,49.6,50,86.62v100h-50v-100c0-27.61-22.39-50-50-50s-50,22.39-50,50v100h-50v-100c0-27.61-22.39-50-50-50s-50,22.39-50,50v100h-50v-100c0-37.02,20.11-69.33,50-86.62,14.71-8.51,31.78-13.38,50-13.38s35.29,4.87,50,13.38c9.41,5.44,17.85,12.37,25,20.47,7.15-8.1,15.59-15.03,25-20.47,14.71-8.51,31.78-13.38,50-13.38m0-3c-18.11,0-35.92,4.77-51.5,13.78-8.71,5.04-16.6,11.29-23.5,18.61-6.9-7.33-14.79-13.58-23.5-18.61-15.59-9.02-33.39-13.78-51.5-13.78s-35.92,4.77-51.5,13.78c-15.38,8.89-28.27,21.68-37.29,36.98-9.29,15.77-14.21,33.83-14.21,52.23v100c0,1.66,1.34,3,3,3h50c1.66,0,3-1.34,3-3v-100c0-25.92,21.08-47,47-47s47,21.08,47,47v100c0,1.66,1.34,3,3,3h50c1.66,0,3-1.34,3-3v-100c0-25.92,21.08-47,47-47s47,21.08,47,47v100c0,1.66,1.34,3,3,3h50c1.66,0,3-1.34,3-3v-100c0-18.4-4.91-36.47-14.21-52.23-9.02-15.3-21.92-28.09-37.29-36.98-15.59-9.02-33.4-13.78-51.5-13.78h0Z"/>
    </g>
    <g>
      <circle class="cls-5" cx="935.5" cy="303" r="19"/>
      <path d="m935.5,285.5c9.66,0,17.5,7.84,17.5,17.5s-7.84,17.5-17.5,17.5-17.5-7.84-17.5-17.5,7.84-17.5,17.5-17.5m0-3c-11.3,0-20.5,9.2-20.5,20.5s9.2,20.5,20.5,20.5,20.5-9.2,20.5-20.5-9.2-20.5-20.5-20.5h0Z"/>
    </g>
    <g>
      <circle class="cls-6" cx="903" cy="270.5" r="19"/>
      <path d="m903,253c9.66,0,17.5,7.84,17.5,17.5s-7.84,17.5-17.5,17.5-17.5-7.84-17.5-17.5,7.84-17.5,17.5-17.5m0-3c-11.3,0-20.5,9.2-20.5,20.5s9.2,20.5,20.5,20.5,20.5-9.2,20.5-20.5-9.2-20.5-20.5-20.5h0Z"/>
    </g>
    <g>
      <circle class="cls-2" cx="870.5" cy="303" r="19"/>
      <path d="m870.5,285.5c9.66,0,17.5,7.84,17.5,17.5s-7.84,17.5-17.5,17.5-17.5-7.84-17.5-17.5,7.84-17.5,17.5-17.5m0-3c-11.3,0-20.5,9.2-20.5,20.5s9.2,20.5,20.5,20.5,20.5-9.2,20.5-20.5-9.2-20.5-20.5-20.5h0Z"/>
    </g>
    <g>
      <circle class="cls-3" cx="903" cy="335.5" r="19"/>
      <path d="m903,318c9.66,0,17.5,7.84,17.5,17.5s-7.84,17.5-17.5,17.5-17.5-7.84-17.5-17.5,7.84-17.5,17.5-17.5m0-3c-11.3,0-20.5,9.2-20.5,20.5s9.2,20.5,20.5,20.5,20.5-9.2,20.5-20.5-9.2-20.5-20.5-20.5h0Z"/>
    </g>
    <g>
      <path class="cls-1" d="m373,404.5c-.83,0-1.5-.67-1.5-1.5v-10.82c-14.81,8.07-31.52,12.32-48.5,12.32-55.97,0-101.5-45.53-101.5-101.5s45.53-101.5,101.5-101.5c17.84,0,35.39,4.7,50.75,13.58,31.3,18.11,50.75,51.8,50.75,87.92v100c0,.83-.67,1.5-1.5,1.5h-50Zm-50-150c-26.74,0-48.5,21.76-48.5,48.5s21.76,48.5,48.5,48.5,48.5-21.76,48.5-48.5-21.76-48.5-48.5-48.5Z"/>
      <path d="m323,203c18.22,0,35.29,4.87,50,13.38,29.89,17.29,50,49.6,50,86.62v100h-50v-13.38c-14.71,8.51-31.78,13.38-50,13.38-55.23,0-100-44.77-100-100s44.77-100,100-100m0,150c27.61,0,50-22.39,50-50s-22.39-50-50-50-50,22.39-50,50,22.39,50,50,50m0-153c-56.79,0-103,46.21-103,103s46.21,103,103,103c16.39,0,32.53-3.9,47-11.33v8.33c0,1.66,1.34,3,3,3h50c1.66,0,3-1.34,3-3v-100c0-18.4-4.91-36.47-14.21-52.23-9.02-15.3-21.92-28.09-37.29-36.98-15.59-9.02-33.4-13.78-51.5-13.78h0Zm0,150c-25.92,0-47-21.08-47-47s21.08-47,47-47,47,21.08,47,47-21.08,47-47,47h0Z"/>
    </g>
    <g>
      <path class="cls-1" d="m733,404.5c-.83,0-1.5-.67-1.5-1.5v-10.82c-14.81,8.07-31.52,12.32-48.5,12.32-55.97,0-101.5-45.53-101.5-101.5s45.53-101.5,101.5-101.5c17.84,0,35.39,4.7,50.75,13.58,31.3,18.11,50.75,51.8,50.75,87.92v100c0,.83-.67,1.5-1.5,1.5h-50Zm-50-150c-26.74,0-48.5,21.76-48.5,48.5s21.76,48.5,48.5,48.5,48.5-21.76,48.5-48.5-21.76-48.5-48.5-48.5Z"/>
      <path d="m683,203c18.22,0,35.29,4.87,50,13.38,29.89,17.29,50,49.6,50,86.62v100h-50v-13.38c-14.71,8.51-31.78,13.38-50,13.38-55.23,0-100-44.77-100-100s44.77-100,100-100m0,150c27.61,0,50-22.39,50-50s-22.39-50-50-50-50,22.39-50,50,22.39,50,50,50m0-153c-56.79,0-103,46.21-103,103s46.21,103,103,103c16.39,0,32.53-3.9,47-11.33v8.33c0,1.66,1.34,3,3,3h50c1.66,0,3-1.34,3-3v-100c0-18.4-4.91-36.47-14.21-52.23-9.02-15.3-21.92-28.09-37.29-36.98-15.59-9.02-33.4-13.78-51.5-13.78h0Zm0,150c-25.92,0-47-21.08-47-47s21.08-47,47-47,47,21.08,47,47-21.08,47-47,47h0Z"/>
    </g>
  </g>
</svg>